<svg width="26" height="26" viewBox="0 0 26 26" fill="none" xmlns="http://www.w3.org/2000/svg">
<path d="M7.14285 13.0108C7.11562 15.5268 7.53796 16.8797 8.30827 17.65C9.08175 18.4235 10.4525 18.8571 13.0001 18.8571C15.5473 18.8571 16.9024 18.4236 17.6687 17.6523C18.4364 16.8795 18.8572 15.5227 18.8572 13C18.8572 10.4773 18.4364 9.12046 17.6687 8.34766C16.9024 7.57639 15.5473 7.14286 13.0001 7.14286C10.4532 7.14286 9.11367 7.57629 8.35462 8.34533C7.58934 9.12068 7.17023 10.4813 7.14285 13.0108Z" stroke="#282726" stroke-width="2" stroke-linecap="round" stroke-linejoin="round"/>
<path d="M13 1.85714V3.57143" stroke="#282726" stroke-width="2" stroke-linecap="round"/>
<path d="M13 22.4286V24.1429" stroke="#282726" stroke-width="2" stroke-linecap="round"/>
<path d="M24.1428 13L22.4285 13" stroke="#282726" stroke-width="2" stroke-linecap="round"/>
<path d="M3.57141 13L1.85713 13" stroke="#282726" stroke-width="2" stroke-linecap="round"/>
<path d="M4.42859 4.42857L5.64077 5.64076" stroke="#282726" stroke-width="2" stroke-linecap="round"/>
<path d="M4.42859 21.9263L5.64077 20.7142" stroke="#282726" stroke-width="2" stroke-linecap="round"/>
<path d="M21.9264 4.42857L20.7142 5.64076" stroke="#282726" stroke-width="2" stroke-linecap="round"/>
<path d="M21.9264 21.9263L20.7142 20.7142" stroke="#282726" stroke-width="2" stroke-linecap="round"/>
</svg>
